# xmcd CD database file
# Copyright (C) 1996 Ti Kan
#
# Track frame offsets:
# 	150
# 	17445
# 	36033
# 	47365
# 	67328
# 	80970
# 	96620
# 	109435
# 	126553
# 	145000
# 	164945
# 	177203
# 	197258
#
# Disc length: 2872 seconds
#
# Revision: 1
# Processed by: cddbd v1.4b41PL1 Copyright (c) Steve Scherf et al.
# Submitted via: DiscPlay 3.4.1
#
DISCID=c10b360d
DTITLE=Nora McDaniel - A Little Bit Blue and Sentimental
DYEAR=1900
DGENRE=
TTITLE0=Isolation Blues
TTITLE1=Don't Let Me Down This Way
TTITLE2=Bye Bye Baby
TTITLE3=I'm So Glad I Met Someone Like You
TTITLE4=Blues Jam
TTITLE5=Stars Fell On Alabama
TTITLE6=No Can Do
TTITLE7=Travelin' Light
TTITLE8=Send for Me
TTITLE9=If I Could Be With You
TTITLE10=I'm Goin' Out
TTITLE11=Mark's Blues
TTITLE12=Right String Baby
EXTD=
EXTT0=
EXTT1=
EXTT2=
EXTT3=
EXTT4=
EXTT5=
EXTT6=
EXTT7=
EXTT8=
EXTT9=
EXTT10=
EXTT11=
EXTT12=
PLAYORDER=
